<svg xmlns="http://www.w3.org/2000/svg" xmlns:xlink="http://www.w3.org/1999/xlink" preserveAspectRatio="xMidYMid meet" version="1.0" viewBox="-1.0 0.0 449.2 501.1" zoomAndPan="magnify" style="fill: rgb(0, 0, 0);" original_string_length="19184" width="156.28794596361038px" height="174.35774904662412px"><g id="__id1_s9l0l6ekc"><path d="m295.4,411.5c-.9-3.4-2.1-8.6-6-9.7-1.7-.2-3.5-.2-5.2,0-3.1.4-6.1,1.5-9.4,1-2.3-.6-4,2.1-6.4,1.5-2.5-.4-5,.5-7.6-.1-1.1-.2-2.4.7-3.5.5-1.4-.5-2.6,0-3.9.7-.5.2-1.1.6-1.6.5-1.9-.5-3.4.3-5.1.8-.8.2-1.6.4-2.4.1-1.7-.5-3.5-.1-5.2.1-3.1.7-6.4,0-9.4,1.3-.8.2-1.5.9-2.2.8-4.7-.3-9.1.9-13.7,1.5-5.3,0-10.8-.4-15.9-2-1.6-.8-3.3-1.2-5-1.4-5-.1-8.2-5.2-13.4-4.1-1.4.4-3,.7-4.5.3-2.1-.3-7.7-1-8.9.7-.9,1.9-2.4,3.6-2.7,5.8-.3,2.1-.1,4.1,2.1,5.3.4.2.7.5.8.9.3,1.2,1.2,1.8,2.1,2.4,1,.4,1.4,1.7.1,2-2.5.8-3.5,3.1-4.8,5.1-5.2,6.1.2,12.8,5.1,17.1-.6,2.5.3,4.8,1.7,6.9.5.8.5,1.6.5,2.5,0,2.6-.8,5.5,2.2,7.2,2.5,5.8,26,7.5,32.7,8.1,6.2-.3-6.3,10.7-1.7,20.1.7,4.7,3.7,3.9,5.8,7.1,0,.2.4.4.6.4,3.1.3,3.7,4.1,6.6,4.7,8.7,1.5,21.8,0,26.5-8.5.9-1.6,0-3.5-.7-5-2-3,1.9-3.2,2.1-6,0-.6.2-1.1.6-1.5,1.8-1.7-.2-7.4-1.9-8.7-.2-.2-.3-.5,0-.9.2,0,.4-.2.6-.2,3.6.9,7.3,0,10.9.7,3.8-.7,7.6-.9,11.5-1.4,4.8-.8,9.8-1,14.3-3.4,5.5-2.5,8.5-9.5,5.6-15-.4-.7-.7-1.5-.4-2.3,1.8-4.8,2.7-6.3,0-11-.6-1.4-1.4-2.5-3.1-2.6-.6,0-1-.4-1.2-1,4.3-3.8,11.1-1.8,7.7-9.6-.5-1.2-1.6-2.1-1.3-3.5,1.6-1.3,3.2-2.6,5.3-2.9,1.9-.7,1.8-3.6,1.7-5.3Z" style="fill: rgb(189, 214, 126);"/></g><g id="__id2_s9l0l6ekc"><path d="m343.3,226c.2-.4.1-1-.1-1.4-1.1-1.9,0-3.8-.4-5.8.1-2.6-1.5-5.1-.4-7.7.1-.3,0-.8-.2-1.2-.8-1.6-.7-3.6-2-5-.4-.5-.2-1.1-.2-1.6-.5-4.2-1.2-8.4-3.5-12-1.3-1.9-.6-4.2-2-6-1.5-2.6-2.4-5.4-4-8-1.5-2.2-3-4.5-3.9-7-.6-1.6-1.1-3.4-2.2-4.7-2.4-3.3-5.3-6.1-8-9.2-2.1-3.7-5.8-5.6-8.6-8.6-1.3-1.5-2.5-3.1-4.6-3.6-.9-.3-1.7-1-1.8-2-.2-1.5-1.2-2-2.5-1.9-1,0-2-.2-2.6-.9-3.4-2.6-7.6-4.8-11.4-6.3-9.9-4.1-19.7-8.2-30.3-9.9-5.4-1-10.9-.5-16.2-1.8-1-.3-2.3-.5-3.3,0-2,1.2-3.8,0-5.8.1-2.9.7-5.9.5-8.9.5-3.3.7-6.6,1.9-10,2.2-2.3-.3-4.5.2-6.5,1.4-1.6.9-3.2,1.3-5,.6-2.5-.6-4.3-3.4-7-2.8-4.6.9-9.3,1-13.8,2.5-4.3.3-7.1,4.4-11.6,4.4-3.5,1.6-6.8,3.7-10.4,5.3-7,2.8-12.3,8.4-18.4,12.6-2.9,3.2-6.4,5.7-9.4,8.7-1.9,2.9-4.3,5.2-6.5,7.8-2.2,3.3-3.3,7.3-6.1,10.2-.3.3-.4.9-.6,1.3-2.1,4.6-3.1,9.6-5.1,14.1-.7,1.6-1.5,3.3-1.6,5,0,2.7-1.6,4.8-1.9,7.3,0,3.4-2.1,6.4-1.4,9.9-1.5,3.7-.3,7.5-.9,11.3-.6,3-.4,6.1.2,9,1.1,6.2,1.6,12.5,3.2,18.7.5,2.4.2,5,1.5,7.2,1.5,2.6,2.2,5.4,2.7,8.4.3,1.9.6,3.8,1.9,5.3.6.7.8,1.7.9,2.7,1.1,5.4,3.9,10.2,5.3,15.6.2.9.5,1.7,1,2.4,1.6,1.7,1.9,4.1,3.2,5.8,1.5,1.7,2.3,3.7,3.2,5.8,1.7,4.6,4.6,8.7,6.2,13.3.8,3.1,2.2,5.9,4.1,8.5.5,1.8,1.6,3.2,3.5,3.9-.3,1.6.4,2.8,1.4,3.7,2.4,2.3,3.7,5.5,6.3,7.7,1.1,1.1,2.8,2,2.5,4,0,.2.1.5.3.6,2.3,2.3,2.8,5.8,5.4,8,.3.3.2.7.3,1.1.4,2.7,2.3,4.8,2.8,7.4,1.9,1.5,2.1,4,3.3,5.9,1.2,1.9,1.7,4.2,2.4,6.4.7,2,1,4,.7,6-.6,4-.5,15.1,6.1,11.4,1.8-.5,3.6-2.8,5.4-1.3,4.5,3.2,10.1,4.2,15.4,5.4,4.2,1.1,8.3.8,12.6,0-.1-.9-.6-1.4-1-1.8-3.8-4.3-1.7-10.1-1.4-15.1.9-7.2,1.2-14.4,1.2-21.7,0-5.8-.8-11.3-1-17-.4-3.2-1.7-6.1-1-9.4.2-1.2-.2-2.3-1.5-2.7-16.3-4.1-18.3-6.7-25.5-21.8-.6-1.4-.8-2.9-1.7-4.2-5.1-6.5-8.2-14.3-9.6-22.4-.6-4.5-.3-9-.7-13.5-.6-2.8.9-5.4.9-8.2,2.8-5.1,9.5-7.4,15.1-6.6,2.2.4,4.6.2,6.2,2.4.5.7,1.4,1,2.1,1.5,3.6,2.3,5.8,6.1,7.8,9.8,1.6,3.6,3.9,7.1,5.1,10.8,0,2.5,2.2,3.9,2.9,6.1.3.9,1.1,1.7,1.1,2.8,0,.7.3,1.4.6,2.1.5,1.6,1.9,2.9,2.1,4.5.3,5.6,2.6,10.7,3.3,16.2.4,2.5,1.1,5.1.2,7.8-.4,1.1-.2,2.4.6,3.4,4.2-.2,8.2-1.4,12.2-2.2,0-1.1-.4-1.6-.7-2.3-1.5-4.4,3.2-8.9,7-4.7,3.8,5.3,9.2,9.2,15,12,1.8-2.2,1.1-4.4,1.5-6.8.7-1.8.7-3.6.8-5.4.2-5.4,1.6-10.5,2.6-15.7.4-2.2,1.7-4.1,2.4-6.2.4-1.2,0-2.4.7-3.4.9-1.3,1.4-2.8,1.7-4.4.5-1.9,2.3-3.1,2.5-5.1,5.3-9.5,13.3-23.1,23.3-28,1.1-.5,2.3-1.3,3.4.3,2.4.4,5.1.8,7.4,1.6,4.5,1.4,3.9,7.6,4.5,11.5.5,2.5-.5,4.4-.9,6.7-.7,5.9-4,11.1-5.5,16.7-2,8.4-7.2,15.5-13,21.6-3.2,2.7-6.2,7.4-10.8,7.1-1.9-.2-2.3-2-2.8-3.5-.5-1.4-1.3-3,.1-4.2,3-2.8,5-6.5,8.1-9.2,1.2-1.1,1.5-2.8,2.7-3.9,2-1.8,3.6-4.1,4.6-6.5,1.3-3.1,4.2-5.6,3.9-9.4,2.3-5.2,4.2-10.1,4.6-16-3.3,1.1-4.2,4.5-7,5.6-2-1.4-1.9-3.9-3.1-5.9-6.5,9.5-11.3,19.6-14.3,30.6-.5,2.7-.8,5.4-1.2,8-.2,1.6-1.2,3-1.1,4.6.3,3.2-.9,6.1-1.6,9.1-.4,5.8-1.8,11.6-1,17.6-.6,5.2-.2,10.5-.2,15.7,0,14.5-2,28.7,0,43.2,2.6-1,5.9.4,7.8-2.7,1.6.3,3-.8,4.6-.4,1.1.3,2.1,0,2.9-.7,1.4-1.2,3.1-1,4.7-1.5,1.6-.4,2.7-2.2,4.8-2.2-.5,2.6.5,5.5-1,7.9-.5.7-.6,1.6-.5,2.3.6,2.3,2.7,9.2,5.8,7,3-2.6,5.1-5.9,5.3-9.8.2-3.6,1-7.2.5-10.9,0-1.2.8-2.5.5-3.8,1.6-8.6,4.3-17.4,5.9-26.1.6-3.5,1.2-7,2.2-10.4,1-3.4,1.2-7.3,3.9-10,.6-2.1,1.8-3.9,3.1-5.5,3.9-5.6,4.8-12.8,8.6-18.4.9-2.7,2.4-5.1,3.8-7.6.6-1,.6-2.3,1.5-2.9,1.5-.9,2-2.4,2.7-3.8,1-3.2,3.7-5.6,3.9-9.1,0-1.7.8-3.4,1.8-4.8,1.7-2.4,1.5-5.8,3.5-8.1,1.8-2.2,2.8-4.7,4.4-7,1.3-1.6,1-3.6,1.4-5.4,1.6-2.1,1.2-4.7,1.8-7,.5-2.9.9-6,.6-8.9,0-1.2,1.2-2.3,1.3-3.7,0-1.6-.3-3.3.7-4.8.3-1.2-.9-2.6-.2-3.9Zm-208.7-50.5c-1.6,3.1-3.2,6.2-4.7,9.4-.9,1.8-1.3,3.9-1.4,5.7-.5,3.5-2.1,6.5-3.7,9.5-2.5,3.2.8,6.8-.8,10.2-1.5,2.9.9,5.8-.2,8.6-.1,3.2-.6,6.5-1.3,9.6-.1.6-.2,1.3,0,1.9,1.5,4.9-1.1,10,.3,15,.3,1.3.6,2.8-.1,4.2-.6,1.5.6,2.9,1.3,4.3-2.2,3.1.5,7-.8,10.4-.4,1.1.6,2.3.1,3.5-.5-.2-.7-.6-.8-.9-.5-3.3-2.7-6.2-3.4-9.4-2.1-10.9-1.5-21.8-2-32.8-.1-1.6.9-3.3.8-4.9-.2-2.9.9-5.8.3-8.8-.1-.6.1-1.1.4-1.6,1.1-1.7,1.3-3.6.9-5.5-.9-2.7,2-4.1,1.9-6.7.6-3.2-.1-7.1,2.3-9.8,2.5-2.4,2.5-6.1,4.6-8.7,1.5-1.4,2.2-3.9,4-5,3.6-1.4,2.9-6.4,7.1-7.3-1.7,3-3.4,5.9-4.9,8.9Zm12.1-17c.2-.8.7-1.1,1.7-.8-.5.7-.9.9-1.7.8Zm97.2,110.2c-.9,1.5-.7,3-.7,4.6,0,2.8-1.1,5.3-2.3,7.7-2.4,5.1-4.9,13.7-12,12.7-.6-.5-.6-1.1-.5-1.6.2-.9.2-1.8.6-2.6,2.2-5,3.4-10.2,4.9-15.4.9-3.2-.4-6.5-.1-9.7.1-1.2,0-1.2-.8-2.5-3.1,1-7.3-.8-5.8-4.5,0-.3.2-.6.2-.9-.4-5.4,2.9-8.6,6.7-11.5,5.8-1.7,8,9.7,8.5,13.8.3,3.2,1.6,6.7,1.2,9.9Z" style="fill: rgb(255, 255, 255);"/></g><g id="__id3_s9l0l6ekc"><path d="m249,382.1c-.3-2.7-.1-5.5-.8-8.2-1.6-6.8-.8-13.8-2.1-20.7.2-4.6-1.1-9.3-.6-13.9.3-3.5-.2-6.9-.5-10.6-7.7.4-14-2.5-19.4-8.3-3,4.7-7.5,6.9-12.1,8.7,1,10.7,1.4,20.9-.3,31.4-2,11.9-.1,24.6-5.1,35.7,2,.9,3.9,1.7,5.8,0,2.7-.6,5.7-.8,8.5-.4.8.2,1.7.3,2.3-.1,1.2-.9,2.7-.8,4-1.2,2-.6,4.1-.6,6-1.5,2.1-1,4.7-.9,6.7-2.3,2.8.1,5.6-.9,8.4-.5.8-2.9-1-5-1-7.9Z" style="fill: rgb(255, 255, 255);"/></g><g id="__id4_s9l0l6ekc"><path d="m38.4,194.5c3,.8,6.3.6,9.3,1.9,4.1,1.1,8.6.8,12.6,2.6,2.1.5,7.9,2.4,8.4-.7.3-1.3.8-2.6.7-4,0-1.1,0-2.2.9-3.1,1.7-3.6-3.8-8.8-6.8-9.9-7-3.1-13.2-7.2-19.3-11.8-4.7-2.6-9.3-5.2-13.8-8.1-2.2-1.2-10.9-6.8-10.2-1.2,0,1.2.7,2.3.5,3.7-3.9-.3-7.7-2.3-10.6,1.1-.7,0-1.3-.5-2.1-.2-1.4,1.7-.6,4.3-1,6.3-1.5,9.8,11,3.6,12.5,7.7-.8.5-1.5.2-2,0-5.4-1.4-11.3-.6-15.5,3.2-1,1-3,3.1-1.6,4.5,2.5,2.3,5.4,4.1,8.8,4.3,1.9.1,3.9,0,5.7.5,7.8,1.9,16,0,23.5,3.1Z" style="fill: rgb(125, 206, 161);"/></g><g id="__id5_s9l0l6ekc"><path d="m97.5,98.8c.5.1,1.4,0,1.5.5.3,1.8,2.2,2.2,2.8,3.7,1.8,3.6,7.3-.2,9.3,3.3,1.1,1.5,5.4,6.6,7.2,6.1,1.2-.3,2.3-.3,3.5,0,2.4.6,2-1.9,3.3-3.1,1.1-1-.8-5.7-1.7-6.7-.3-3.8-2.9-6.6-3.9-10.1-.8-2.7-1.7-5.5-3.2-8.1-2.9-5.1-4.4-10.9-7.1-16.1-3.5-5.3-5.1-16.2-13.4-15-2,.5-3.4-1-5.1-1.7-5.4-2.5-4.1,7.1-6.6,9.4-2.7-3.1-9.3-4.2-10.3.8-.2,3.8-2.9,9.3,1.7,11.5,3.3,1.2,1.2,2.8,2.9,4.4,1.6,1.1,2.4,3,4,4.1.8.6,1.2,1.3,1.5,2.3.6,2.8,2.7,4.3,5,5.7,2.5,3.2,4.5,7.8,8.6,9.1Z" style="fill: rgb(125, 206, 161);"/></g><g id="__id6_s9l0l6ekc"><path d="m218.2,16.2c.1.2.2.5,0,.7-.8,2,.4,3.7.7,5.6.1.9.6,1.6.8,2.5,2.3,10.5,5.7,20.7,8.3,31,0,3.3,2.7,5.1,3.4,8,0,1.9,1,3.5,1.8,5.1.9,2,5.3,4,6.5,1.8,0-1.7,1.3-2.9,1.7-4.4,3.7-13.7,6.4-27.6,9.2-41.5.9-4.7,1.2-9.5,1.4-14.2,0-1.1-.1-2.2-.8-3.1-.7-.3-1.3.4-2.1-.2-.3-3.8-4.7-4.5-6.3-7.5-4.4,2.3-7.1.8-10.2,5.8-2.1-1-3.8-2.3-6.1-2.3-.9,1.9-3.2,2.6-4,4.8-2.3-1.1-5.4-2-4.9,1.5.2,2.1-.5,4.3.6,6.3Z" style="fill: rgb(125, 206, 161);"/></g><g id="__id7_s9l0l6ekc"><path d="m445.9,193.3c-1.2-1.6-1.1-3.8-2.3-5.4-.2-.2,0-.8.2-1.1,1.1-3.8-1.9-5.3-4.4-7.3.7-1,1.9-1.1,2.4-2,2.2-3.7-1.1-8.8-5.5-7.4-1.8.5-3.6,1.1-5.6.7-.6-.1-1.5,0-1.8.3-3.2,2.2-6.9,3.5-10.3,5.1-2.2.9-4.1,2.8-6.7,2.8-2.5,1.9-5.5,2.8-8.4,3.9-3.7,1.5-7.5,2.9-11,4.8-2.6,1.3-2.6,1.4-2.3,4.3-4.4,2.4,2.8,14.9,7.5,13.6,2.4.5,4.7,1,7,.1.5-.2,1.1-.6,1.6-.3,1.5.7,2.6,0,3.7-1.1,3.4,2.8,7-1,10.7.4.3,0,.7,0,.9-.1,2.4-1.5,5.1.3,7.7-.5,4.7-1.1,9.5-.5,14.2-1.1.9,0,1.6-.3,2-1.1,1.7-3.3,2.7-5.2.3-8.4Z" style="fill: rgb(125, 206, 161);"/></g><g id="__id8_s9l0l6ekc"><path d="m427,318.1c-1.2-.8-3-.4-3.8-1.6.2-.7,1.1-.7,1.5-1.6-1.7-1.4-3.3-2.7-5.6-2.8-9.5-.2-17.3-5.7-26-8.8-1.5-.6-2.9-1.4-4.5-1.4-.6,0-1.1-.3-1.5-.7-1.5-1.8-3.4-1.7-5.4-.9-3.3,1.5-9.7,5.2-6.3,9.3,1.6,1.7,2.2,4.1,4.2,5.4,1.9,1.6,4.3,2.8,5.6,5.1,1.2.9,2.8,1.2,3.3,2.9.2.5.7.9,1.2,1.2,2.2,1,3.2,3,4.6,4.6,3.3,3.6,7.3,6.6,10.1,10.6.3.6.7,1.1,1.3,1.4,3.7,2.1,7.2,10.1,12,6.1,2.8-3.5,8.6-.8,9.1-3.9.4-2,1.2-3.9,2.5-5.6,1.3-1.7,1.1-4.1,2.4-5.9.2-.9-.5-2.1-.2-3,2-1.4,2.4-1.9,1.6-3.3-1.5-2.7-3.2-5.3-6.1-6.8Z" style="fill: rgb(125, 206, 161);"/></g><g id="__id9_s9l0l6ekc"><path d="m398.7,67.2c-.7-2.1-2.5-3.4-4.3-4.3-4-2.1-4.8-7-8.9-9.1-2.6-1.7-4.6-1.5-6.8.7-.7.7-1.6,1.7-2.5,1.7-1.3,0-2,.8-2.9,1.3-1.1-1.1-.8-3-2.6-3.8-3.9,8.1-7.2,16.3-11.4,24.2-2,3.7-3.6,7.6-5.9,11.2-1.5,2.4-3.2,4.6-4.1,7.5-2,6.6-1.6,7.9,4.3,11.5,1.1.8,2.5,1.3,3.7.3,2.6-1.7,4.4-4.3,7.3-5.5,1.8-.7,3.7-1.4,4.6-3.5.3-.7,1.1-.8,1.8-1,1.5-.3,2.6-1,3.3-2.5.4-.9,1-1.6,2.1-1.9.5-.1.8-.5,1.1-.8,1.9-1.8,3-4.4,5.5-5.7.3-.2.5-.6.7-.9,3.3-4.3,8-7.3,11.6-11.2,1.8-2.2,5.3-2.8,5.1-6.3-.7-.7-1.6-1-1.9-1.9Z" style="fill: rgb(125, 206, 161);"/></g><g id="__id10_s9l0l6ekc"><path d="m86.7,301.9c-1.5.5-2.9,1.2-4.5,0-2.1-1.6-4.7-1.9-7.1-2.5-.6-.2-1.3-.1-1.9.1-7.3,3.1-14.4,7-22,9-1.4.3-3,.1-4.1,1.2-1.2,1.1-2.5,1.6-4.1,1.7-1.6.2-2.7,1.5-4.3,1.9-5.8,1.2-3.1,16.2,1.2,14.1,1.6-1,2.5-2.8,4.8-2.6,0,1-.5,1.5-1,1.8-2,1.1-2.1,3.3-2.9,5.1-1.7,7.6,4.3,6.3,9.5,6.2,2.1,0,4.2-.1,5.5-2.2.2-.3.7-.4,1-.7,3.6-2.8,8.2-4.2,12.4-5.8,6-1.4,9.6-6.6,15.1-8.9.5-.2,1-.6,1.3-1.1,1.6-3,6.6-2.1,6.9-6.2,0-.4.3-.7.7-1,.7-.5.8-1.3.9-2.1.6-4-2.8-9.5-7.3-8Z" style="fill: rgb(125, 206, 161);"/></g><g id="__id11_s9l0l6ekc"><path d="m200.8,318.7c-.1-2.3.9-4.1,1.6-5.9-1.9-4.6-3.3-9.1-5-13.6-2.4-4.6-4.9-9.3-7.1-14-3.3-5.9-5.6-12.2-9.2-18-.9-1.7-2.6-1.9-4.1-2.5-.8-.3-2.1.6-2.1,1.5-.6,2.9-2,5.8-1.8,8.8.4,7.3,2.1,14.5,5.2,21.1,1.4,2.9,3.6,5.5,4.9,8.6,1.9,5,7.3,3.9,11.5,4.6.5,0,1,0,1.3.7-2.8,1.2-5.9.8-9.3,1.2,3.8,4.8,8.2,7.4,14.1,7.4Z" style="fill: rgb(255, 255, 255);"/></g><g id="__id12_s9l0l6ekc"><path d="m360.7,211.8c.2-11.4-3.1-22.1-5-33.2,0-.8-.4-1.6-1-2.1-1.4-1.1-1.8-2.6-2.1-4.2-1.3-4.4-3.3-8.4-5.3-12.5-1.7-4-4.7-7-7.2-10.5-1.3-2.3-2.8-4.5-4.9-6.1-4.1-2.5-5.7-7.4-10-9.5-2.4-1.3-2.6-4.5-5.5-5.3-1.2-.5-2.7-.9-3.4-2.1-2.1-3.3-5.5-4.8-8.8-6.3-2.6-1.2-5-3.1-8.1-3.1-.2,0-.5-.1-.6-.3-1.3-1.8-2.9-2.8-5.2-2.8-.9-.3-1.6-1.3-2.6-1.1-.9.1-1.6-.2-2.1-.8-.6-.6-1.3-.8-2.1-.9-3.1-.4-5.9-1.7-8.9-2.4-2.4-.6-4.8-1.5-7.2-2.3-1.3-.5-2.7,0-4-.6-1.3-.6-2.7-.7-4.2-.7-4.3,0-8.4-1.4-12.7-1.2-2.9,0-5.8.4-8.8.2-1.9,0-4.1-.3-5.9,1.2-.3.3-.9.5-1.3.3-1.9-1.1-3.8-.6-5.8-.3-15.8,1.8-31.4,6-45.5,13.4-4.9,1.6-9.1,4.6-13.5,7.3-3.2,1.6-6,3.8-8.6,6.2-5.3,2.5-9.4,6.9-14.1,10.4-.7.6-1.5,1.2-1.9,2.1-2,3.4-5.8,5.3-8.1,8.6-4.9,6-8.2,12.9-12.2,19.4-2.5,4.1-4.5,8.4-6,12.9-1.1,4-2.6,7.8-3.5,11.9-.2,1,.3,2.1-.4,3-1.1,1.7-.4,4-1.3,5.8-1.1,2-.3,4.2-.7,6.2,0,2.3-.3,4.9-.3,7.3.6,4-1,8.1,1,11.8.1.3.2.6.1.9-.6,4,0,8.2,1.1,12,.7,1.6.8,3.1.6,4.7-.1,1,0,1.7.7,2.3,1.1.8,1.3,1.9.7,3-1.6,3.1-.6,6.3,0,9.3,1.1,4.9,2.4,9.7,4,14.4,3.7,12.5,9.4,24.2,14.4,36.2,1.6,3.6,3,7.4,5.3,10.6.6.8,1,1.6,2.1,1.8.3-1.1,0-2.1-.5-3-2.5-5.3-4.4-10.9-6.6-16.3-.2-.4-.4-.9.5-1.2,1.1,1.7,2.8,3.1,3.1,5.4.2,1.6.9,3.2,2.1,4.4,1.1.9.7,2.9,2,3.7,2.2,1.8,2.3,5.1,4.5,6.9.4,2.2.2,4.5,2.5,5.9.5.9.3,2,1.4,2.7,1.2.9.3,2.5,1.2,3.5,2.6,3.5,3.9,7.5,5.3,11.5,1.9,3.4,3,7.5,5.5,10.5,1.6,1.2,1.6,3.5,3.2,4.6.1.1.2.4.2.7,1.2,4.6,4.9,8.4,4.5,13.6-.3,1.6,2.3,2.3.9,3.9-1-.2-1.5-1-2.3-1.4-3.6-2.1-4.4,3.3-5.4,5.6-2.1,7.8,7.4,9.6,12.3,12.9.9.5,2.3.2,3.3.6,9.5,4.2,19.9,4.3,30,5.6,6.1.7,12.5-.9,18.6-.3,12.9.7,25.8-.2,38.6-1.7,4.6-.4,9.1-1.8,13.6-2.5,5.8-1.5,12.5-1.5,17.2-5.5,1.2-1.1,1.2-2.6,1.9-3.8,2-3.1-1.6-6-1.4-9.1.5-2.1.3-4.5,2-6.3,1-1.2.2-2.8.1-4.2-.5-3.9,2.3-2.1,2.7-5,.6-3.1,2.2-6,3-9,1.3-4.9,5.3-8.3,6.3-13.2,1.3-1.7,2.7-3.5,3.1-5.6.7-2.8,4.1-3.8,4.3-6.9.6-.4,1.6-1,1.8-1.8.9-2,2.1-3.8,3.5-5.6,1.7-2.2,2.6-5,4.5-7.1.5-.6.4-1.8,1-2.4,2.7-3.4,2.8-8,5.9-11.2,1.6-1.9,3.3-3.6,3.5-6.4,0-3,3.5-4.5,3.9-7.5.6-3.5,2.1-6.4,4.5-9,.7-.7.9-1.6,1-2.6,0-1.2.3-2.4.9-3.4,1.8-3.2,2.7-6.7,3.1-10.3,0-.6,0-1.2.4-1.6,2.1-2,2.7-4.9,3.3-7.5,3.5-14.9,5.1-30.3,3.9-45.6Zm-227.2,91c-.8-.9-1-1.5-.4-2.4.8.6.9,1.3.4,2.4Zm124.6,91c-2.6-.9-5.2.2-7.8,0-3.9-.2-7.8.6-11.7,0-.5,0-1.2,0-1.6.2-2.1,1.3-4.5-1.1-6.5.1-1.5,1.1-3,.8-4.6.4-1.7-.4-3.2-.6-4.9,0-1.7.5-3.4-.7-5.3-.7.6-4.6,1.3-8.7,2.6-13.1,1.1-2.4-.4-5.1-.3-7.5,2-5.3-.7-10.8.3-16,.2-.3.3-.8.2-1.2-.7-2.4-.2-4.9-.9-7.3-.2-.5-.4-1.1-.3-1.6.5-2.8,0-5.7-.2-8.5,0-1.2-.3-2.4-.4-3.5,1.2-4.3-3.4-13.6,2.6-14.8,3.1-.5,5.2-2.3,7-4.5.8-1,2.1-1,3.2-1.9,5,8.7,12.9,11.9,22.3,12.4-.2,1.8-.5,3.4.2,4.9.2.5,0,.9-.3,1.4-.7,2.6-2.6,5.8-1.3,8.5.2.3.3.7.2.9-1.2,2.3-.2,4.8-.6,7.2,0,.5-.1,1,0,1.4,1,2-1.1,3.8-.4,5.8.5,1.4-1,3.1,0,4.4.9,1.1.8,2.1.3,3.3-.3.7-.4,1.4-.2,2.1,1.1,6.9.9,13.9,1.3,20.9,0,4.7,4,4.9,7.8,5.7,0,.8-.3,1.2-.8,1Zm-20.3-136.8c.5,1.2.8,2.6-.3,3.8-.4.4-.7,1-.5,1.5.4,3.5.2,7.1-1,10.4-1.1,4-.8,8.2-3.5,11.6-2.3-7.1-2-18.4.4-25.5.8-3,.6-5.1,4.4-6.3-.5,1.7-.1,3,.5,4.3Zm110.7-39.5c-1,1.4.5,3-.4,4.4-.2.3-.3.7-.2.9.6,2,0,4,.1,6,.1,5.5-2.2,10.9-2,16.3.2.8,0,1.4-.4,2-.9,1.1-1.2,2.4-1.5,3.7-.5,1.8-.2,3.8-1.2,5.5-.3.5-.1,1.2,0,1.9.2.9-.2,1.7-.5,2.5-2.1,4.1-2.5,8.9-5.4,12.7-.5.8-.9,1.5-.8,2.4,0,2.1-2.6,3.4-1.8,5.7.2.4,0,.8-.4,1.1-2.3,1.9-3.3,4.5-4.7,7-1.7,3-3.6,5.9-4.9,9.2-.8,1.1-.5,2.7-1.6,3.7-2.1,2.2-3.6,4.7-4.7,7.6-3.9,5.6-7.1,11.9-11.1,17.4-3.8,4.7-5.8,10.6-9.3,15.5-.6.8-.7,1.8-1,2.6-2.9,5.8-5.1,11.9-7.4,17.9-.2.6-.6,1.2-.4,1.8.7,1.7-.2,3-1.1,4.2-1.3,1.8-1.9,3.7-2,6-.6,4.3-4.1,8.4-2.1,13-1,.7-2,1.1-3.3.9-2.3-.3-4.6.6-6.8,1.2-3.2.9-6.5,1-9.9,1.5,1-5.1-.4-10-.6-14.9.9-4.4-.6-8.7-.5-13.1-.3-8-.9-16,.7-24,.5-2,.5-4.1,0-6.2-.2-.8-.1-1.6.3-2.3,2.1-3.4-.5-8.3,4.1-10.3,2.3-1.2,4.1-3,5.4-5.3.9-1.6,2-2.6,3.9-2.8.9,0,1.6-.5,1.9-1.2.6-1.5,1.9-2.5,2.8-3.8,1.5-1.7,1.9-4.3,4-5.6,1.4-1,2.3-2.2,2.4-3.9,0-.6.4-1.2.9-1.6,4.3-3.3,4.1-8.5,6.3-12.8,1.3-1.4,1.8-3.2,2.1-5,1.9-3.8,2.7-8,3.8-12,.6-9.7,1.9-23.7-10.9-25.3-3.5.4-7.2,1.7-9.8,4.4-1.5,1.6-4,2.7-5.2,4.5-.6,3.5-3.9,6.5-4.9,9.6.4,2.2-1.1,3.5-2.2,5-3.4,5.7-4.4,12.4-7.3,18.3-.1.3-.4.6-.3.9.3,3.4-1.9,6.1-2.6,9.3-.8,3.5-1.3,7-1.8,10.5-.6,2.8-2.4,5.7-1.7,8.7-5.7,2.3-11.3-3-14.9-7-1.4-1.5-2.2-3.4-.8-5.4.7-1.3.3-2.8,1.5-3.9,3.1-4.1,3.9-9.5,6.3-14.1,3.5-11.2,5.7-45.8-13.7-41.1-4.7,1.1-8.1,4.4-10.1,8.7-1,1.6-1.8,3.3-1.9,5.3-2,4.9-2.2,10.3-2.6,15.6-.5,4.2-.6,8.6,1.2,12.6.2.5.5,1.2.3,1.6-.8,2,0,3.7.9,5.5.1.3.3.6.3.9-.1,3,1.4,5.7,2,8.8-2.1,2.7-4.7,5.2-7.9,6.9-.7-.4-.8-.9-.9-1.5-1.5-15.3-7.7-30.2-16.4-42.8-5-6.3-10.8-12.4-18.2-15.9-9.3-3.4-17.7,5.8-18.3,14.5-1.3,2.4-1,5-.6,7.6.7,1.8-.5,3.4-.3,5.2,1.3,3.7,0,8,2.1,11.5,1.4,3.9,3.6,7.2,5,11.2.3,1.3,1.7,2.4,2.7,3.5,5.1,7.1,9.8,13.3,18.6,16.2,3.9,2.4,8.1,3.6,12.4,4.8,2.1.6,2.4,1.1,2.4,3.2,0,2.5-.2,5,.5,7.6.4,3,.3,6.4.3,9.5,0,1.6-.4,3.2.7,4.6,0,.1.1.3,0,.5-1,2.5,0,5,0,7.5-.1,1.7.1,3.5.2,5.2,0,1.5.5,3-.1,4.5-.2.5,0,.9.1,1.4.4,1.1.2,2.2.4,3.3.7,3.3-.2,6.6-.3,9.9-.3,4.3,0,8.8-1.1,13.1-.4,1.9-.6,2-2.6,1.6-6-1.2-11.9-2.6-17.9-4-1.2-.2-1.6-1.2-.5-1.9,1.1-1.2,1.3-2.5.9-4-1.6-4.8,1.9-4.8.6-7.3-1.1-1.7-1.5-3.7-1.9-5.6-.7-5.2-4.8-8.9-6.4-13.8-1.1-2.5-2.6-4.7-4.1-7-1.9-4.8-4.4-9.3-6.2-14.1-.5-1.6-2.1-2.7-2.8-4.1-1.8-4.8-4.5-9.3-6.9-13.8-.7-4.2-3.4-7.3-5.6-10.6-.7-1-1.4-2-1.7-3.1-.6-2.8-3-4.9-3.3-7.8,0-.4-.4-.9-.6-1.3-4.2-5.4-4.3-12.6-8.1-18.2-.9-1.2-1.4-2.5-1.5-4,0-2.7-1.7-4.8-2.7-7.1-2.6-6.5-3.3-13.3-5.5-19.9,1-6.1-3.1-12-1.6-17.9.3-.6.5-1.3.2-1.8-1-1.8-.4-3.6-.4-5.4-.1-3.8-.2-7.6,1.2-11.2-.5-3.8.7-7.6,1.6-11.3,1-3.3,2.8-6.4,2.8-10,0-.8.4-1.5,1-2.1,2-1.9,2.9-4.3,3.1-7,2.3-1.4,1.2-3.8,1.8-5.8,1.1-.4,2.1-1,2.2-2.4,0-.1,0-.4.2-.4,2.8-1.1,3.1-4.3,5.2-6.2,2-1.8,3.4-4.2,5.2-6.3.2-.2.3-.4.3-.6-.1-2.7,2.3-2.9,3.9-3.9,2.5-.7,2.9-4,5.8-4.2.1,0,.3-.1.4-.2,1.5-2.4,4.4-3.3,6.1-5.4,2.3-4.5,8.2-2.8,10.7-7.7,4.7-.6,8.1-4.8,12.7-6,1.2-.4,2-1.2,3.1-1.8,2-1,4.5-.8,6.3-2.2,5.1-3.9,11.9-3,17.3-6.1.9-.5,1.8-.5,2.8-.2.8.3,1.6.3,2.2-.3.8-.9,1.8-.9,2.9-.7,5.8.2,11.5-3.1,17.4-1.6.4,0,.9.1,1.2,0,2.3-1.3,4.7-.4,7-.2,3.3.9,6.6.2,9.9.7,1.9.4,3.9.7,5.9.7,3.5,2.2,7.7,1.8,11.4,3,5.7,1.7,11.3,3.9,16.5,6.5,2.9-.3,4.8,1.8,7.1,3,7.7,4.1,14.7,9.2,20.8,15.5,3.5,3.5,5.7,7.9,9.3,11.1.5.4,1,1.1,1.3,1.7,2.1,5.3,6.9,9.1,8,14.8.7,2.1,2.4,3.8,2.4,6.1,0,2.1,2,3.4,2.2,5.4-.2,6.1,3.2,11.7,2.5,17.8,0,.7-.3,1.5,0,2.1.9,1.6.6,3.3.7,4.9,0,1.7,0,3.3.5,5,.2.5.2,1.1-.1,1.6Zm-58.6,42.9c-.3,1.7-1.2,3.7-1.1,5.6,0,.9-.3,1.7-.8,2.4-.9,1.4-1.6,2.9-1.3,4.7.2,1-.3,1.9-.9,2.6-1.7,1.9-.6,4.6-2.4,6.6-4.3,7.5-7.7,15.3-14.2,21.3-.3-2.1.2-3.8.8-5.5,2.1-6.9,3.4-13.9,6.3-20.5,1.7-4.8,3.2-9.9,6.8-13.8.3-.3.6-.8.6-1.3.1-2.1,1.4-3.5,2.8-4.8.9-.8,1.2-2.2,2.5-3.1.5,2.1-.3,4,.8,5.7Zm-87.6,47.3c-6.8-.6-11.9-4.2-16.9-8.6-4.9-3.5-7.7-9.1-10.5-14.2-.8-2.1-.9-4.5-2.2-6.5-.9-1.4-1.2-2.9-1-4.6.5-3.4.3-7,1.4-10.4,2.1-6.9,5.9-13.4,12-5.2,3.7,3.7,6.1,8.2,8.6,12.8.7,1.2,1.6,2.3,1.7,4,.7,3.2,3.2,6.2,3.4,9.7.8,5,2.3,9.9,2.4,14.9,0,.8.3,1.8.8,2.5,1.2,1.8.9,3.6.2,5.6Z" style="fill: rgb(12, 171, 168);"/></g><g id="__id13_s9l0l6ekc"><path d="m293.8,407.8c-4.1-.3-7.9.5-11.5,2.6-1,.6-1.9,1.1-3.1,1.2-2.8.4-5.5.7-8.3.6-5.2-.4-10.2,1.1-15.4,1.1-3.2-.6-6.3,1-9.5.7-5.5-.4-10.9.1-16.4.6-4.4.2-8.9-.8-13.3-1.2-3.1-.5-6.3-.3-9.1-2.3-.7-.5-1.5-.5-2.3-.6-4.6-.2-8.5-2.7-13.1-2.9-1.2-.1-2.4-.2-3.5-.9-6.6-3.6-15-8.3-21.8-2.5.8,4.7,6.2,6.3,9,9.8,2.2,2.3,5.2,3.2,7.9,4.7.8.4,1.8.8,2.8.6,1.2-.3,2.2.3,3.2.8,3.7,2.5,8,2.1,11.8,3.9,1.5.9,2.8,1.4,4.4,0,2.6,2.5,6.4,2.1,9.4,3.9-1,.9-1.9.7-2.8.6-5.6-.4-11.1-.8-16.7-1.4-8.8,0-18-3.5-26.3,1.2-7,3.3,6.9,14.3,10,16.7,1.1.8,2.5.8,3.4,1.6,1.5,1.3,3.7,1.4,5.2,2.7,1.1,1,2.5-.8,3.6.1,2.5,1.8,5.6,2.1,8.4,3.3,2.2,1,4.6,1.1,6.8,2,2.7.6,5.8-.5,8.3,1.5.8.6,1.7.6,2.7.5,2.7-.2,5.4-.6,7.9.8.6.3,1.3.4,1.8,0,1.6-1,3.1-.9,4.8-.3.5.2,1.1.1,1.6-.1.5-.2.9-.3,1.4,0,1.2.8,2.6.6,3.9.6,2.2,0,4.5,0,6.7,0,.5,0,1,0,1,.9-1,.4-2.3.2-3.1.9-3,2.7-3.7-2.5-7.3,1-1.5-.3-3-1.4-4.2-.9-1.8.8-3.7.8-5.5,1.3-1.1.3-2.2.4-3.2-.2-.9-.6-1.8-.5-2.7.1-.6.5-1.2.5-2,.5-3.2.2-6.4-.5-9.5-1.1-2.6-.4-5.4,0-7.9-1.2-.2-.1-.6,0-.9,0-3,.4-5.8-.5-8.6-1.3-1.4-.4-2.7-1.4-4.3-.9-.6.2-1.2-.3-1.8-.6-2.5-1.1-6.7-3.8-9-1.4-1,1.8-4,3.8-3.3,6,1,2.5,2.4,4.4,5,5.4,1.7.6,2.7,2.3,4.7,2.9,3.7,1.1,7.4,2.4,11.1,3.3,3.4.8,7,.5,10.3,1.6,1.8.6,3.6.7,5.4.2,1-.2,1.9,0,2.4,1.2-1.6.7-2.1,2.2-2.6,3.6-2.5,6.6.8,12.6,6.6,15.4,4.8,1.9,10.2,2,15.3,2,1.7,0,3.4.4,5-.4,2.6-2,9.8-2.4,10.4-5.6,2-4.3,6.1-7.8,3.5-13.1-.7-1.6-1.3-1.9-3-1.1-2.6,1.2-4.3,4.1-7.3,4.3-1.1,0-1.9.4-2.9,1-2.2,1.3-4.3,3.2-7.2,2.2-.4-.1-1,0-1.4.2-1.7.5-4.5,1-5.5-.9-1.8-3.4-4.4-6-7.1-8.8,3.9-.4,7.8.7,11.8-.5.8-.2,1.6-.3,2.4-.1,2.3.4,4.6.5,6.8-.4.3-.1.7-.1.9,0,1.4.7,2.7,0,4-.3.7-.1,1.4-.5,2.1-.5,4.5.3,8.8-1.2,13.3-1.2,4.3-1.3,8.6-3,13-3.7,5.2-.3,9.8-3.5,14.7-5.2,2.5-1.3,9.7-5.1,6.2-8.3-.8-.6-1.7-1-2.7-.8-3.6.9-7.3.2-11.3.3.8-1.5,2.1-1.6,3.2-1.9,5.6-.9,10.1-3.8,11.4-9.6,1.8-6.6-13.1-.1-16-.3-6.2.7-12.2,1.6-18.4,1.7-2.2,0-4.4-.6-6.6,0-2.8.8-5.7.3-8.5,0-4.4,0-8.8.7-13.3.4-4.8-.3-9.4-1.5-14.2-1.4-2.7-.7-5.3-1.7-7.9-2.4-3.9-1.1-7.9-1.8-11.8-2.6-1-.2-1.7-.7-2-1.7.6-.4,1.2-.3,1.7-.1,3.1,1,6.2,1.9,9.4,2.6,4.2.5,8.2,2.1,12.4,2.2,5.9-.6,11.7,2.5,17.4-.5,2.4,2,4.9-.8,7.6-.5,3-.1,6.1-.2,8.6-2.4,1.9,1.5,2.9-.2,4.1-1.2,1.3.6,2.5.8,3.5-.5.8-1,2.4.1,3.1-.8,1.2-1.6,2.9-1.9,4.7-2,3.6-1.1,7.2-3.2,9.9-6,1.8-1.3,4.2-1.6,5.3-3.8.4-.6,1-1,1.7-1.2,2.3-.8,4-2.5,5.5-4.4,1.8-2.4,4.3-4.3,6.4-6.4,1.4-1.1.8-3.2-1.1-3Zm-42.3,49.9c.4-.4.8-.3,1.3,0-.2,1-1.6.7-1.3,0Z" style="fill: rgb(12, 171, 168);"/></g></svg>